{
	"asset":{
		"generator":"Khronos glTF Blender I/O v4.0.44",
		"version":"2.0"
	},
	"extensionsUsed":[
		"KHR_materials_transmission",
		"KHR_materials_specular"
	],
	"scene":0,
	"scenes":[
		{
			"name":"Scene",
			"nodes":[
				0
			]
		}
	],
	"nodes":[
		{
			"mesh":0,
			"name":"11805_airplane_v2_L2",
			"rotation":[
				-0.00037204482941888273,
				0,
				0,
				1
			],
			"scale":[
				0.10000002384185791,
				0.10000002384185791,
				0.10000002384185791
			],
			"translation":[
				0,
				5.5322418212890625,
				0
			]
		}
	],
	"materials":[
		{
			"doubleSided":true,
			"extensions":{
				"KHR_materials_transmission":{
					"transmissionFactor":1
				},
				"KHR_materials_specular":{
					"specularFactor":0.9900000095367432
				}
			},
			"name":"airplane_body",
			"pbrMetallicRoughness":{
				"baseColorTexture":{
					"index":0
				},
				"metallicFactor":0,
				"roughnessFactor":0.8585786819458008
			}
		},
		{
			"doubleSided":true,
			"extensions":{
				"KHR_materials_transmission":{
					"transmissionFactor":1
				},
				"KHR_materials_specular":{
					"specularFactor":0.9900000095367432
				}
			},
			"name":"airplane_wings",
			"pbrMetallicRoughness":{
				"baseColorTexture":{
					"index":1
				},
				"metallicFactor":0,
				"roughnessFactor":0.8585786819458008
			}
		}
	],
	"meshes":[
		{
			"name":"11805_airplane_v2_L2",
			"primitives":[
				{
					"attributes":{
						"POSITION":0,
						"NORMAL":1,
						"TEXCOORD_0":2
					},
					"indices":3,
					"material":0
				},
				{
					"attributes":{
						"POSITION":4,
						"NORMAL":5,
						"TEXCOORD_0":6
					},
					"indices":7,
					"material":1
				}
			]
		}
	],
	"textures":[
		{
			"sampler":0,
			"source":0
		},
		{
			"sampler":0,
			"source":1
		}
	],
	"images":[
		{
			"mimeType":"image/jpeg",
			"name":"airplane_body_diffuse_v1",
			"uri":"airplane_body_diffuse_v1.jpg"
		},
		{
			"mimeType":"image/jpeg",
			"name":"airplane_wings_diffuse_v1",
			"uri":"airplane_wings_diffuse_v1.jpg"
		}
	],
	"accessors":[
		{
			"bufferView":0,
			"componentType":5126,
			"count":35966,
			"max":[
				319.1271057128906,
				499.906005859375,
				749.0983276367188
			],
			"min":[
				-322.0859069824219,
				29.211000442504883,
				-753.068115234375
			],
			"type":"VEC3"
		},
		{
			"bufferView":1,
			"componentType":5126,
			"count":35966,
			"type":"VEC3"
		},
		{
			"bufferView":2,
			"componentType":5126,
			"count":35966,
			"type":"VEC2"
		},
		{
			"bufferView":3,
			"componentType":5123,
			"count":177012,
			"type":"SCALAR"
		},
		{
			"bufferView":4,
			"componentType":5126,
			"count":25244,
			"max":[
				786.957275390625,
				242.61630249023438,
				400.31671142578125
			],
			"min":[
				-789.9151000976562,
				74.7311019897461,
				-165.9241943359375
			],
			"type":"VEC3"
		},
		{
			"bufferView":5,
			"componentType":5126,
			"count":25244,
			"type":"VEC3"
		},
		{
			"bufferView":6,
			"componentType":5126,
			"count":25244,
			"type":"VEC2"
		},
		{
			"bufferView":7,
			"componentType":5123,
			"count":113712,
			"type":"SCALAR"
		}
	],
	"bufferViews":[
		{
			"buffer":0,
			"byteLength":431592,
			"byteOffset":0,
			"target":34962
		},
		{
			"buffer":0,
			"byteLength":431592,
			"byteOffset":431592,
			"target":34962
		},
		{
			"buffer":0,
			"byteLength":287728,
			"byteOffset":863184,
			"target":34962
		},
		{
			"buffer":0,
			"byteLength":354024,
			"byteOffset":1150912,
			"target":34963
		},
		{
			"buffer":0,
			"byteLength":302928,
			"byteOffset":1504936,
			"target":34962
		},
		{
			"buffer":0,
			"byteLength":302928,
			"byteOffset":1807864,
			"target":34962
		},
		{
			"buffer":0,
			"byteLength":201952,
			"byteOffset":2110792,
			"target":34962
		},
		{
			"buffer":0,
			"byteLength":227424,
			"byteOffset":2312744,
			"target":34963
		}
	],
	"samplers":[
		{
			"magFilter":9729,
			"minFilter":9987
		}
	],
	"buffers":[
		{
			"byteLength":2540168,
			"uri":"plane.bin"
		}
	]
}
